<?xml version="1.0" encoding="utf-8"?>
<svg viewBox="0 0 516 80" xmlns="http://www.w3.org/2000/svg">
    <radialGradient id="SVGID_1_" cx="625.7964" cy="64.131" r="93.6388" gradientTransform="matrix(0.8486 0 0 0.8485 -116.435 -42.238)" gradientUnits="userSpaceOnUse">
        <stop offset="0" style="stop-color:#38E0FA" />
        <stop offset="1" style="stop-color:#1C90FC" />
    </radialGradient>
    <path style="fill:url(#SVGID_1_);" d="M386.27,0.15c-22,0-39.87,17.84-39.87,39.85c0,22.01,17.86,39.84,39.87,39.84 c22.01,0,39.84-17.84,39.84-39.84C426.11,17.99,408.28,0.15,386.27,0.15z M386.27,59.93c-11,0-19.93-8.92-19.93-19.93 c0-11.01,8.93-19.93,19.93-19.93c11,0,19.93,8.92,19.93,19.93C406.19,51.01,397.27,59.93,386.27,59.93z" />
    <path d="M64.95,9.36L52.3,59.42L39.65,9.36h-8.03L18.97,59.42L6.33,9.36H0l15.49,61.33h6.96L35.64,18.5l13.18,52.19h6.96l15.5-61.33 H64.95z M86.84,9.36v6.13h46.07V9.36H86.84z M86.84,43.07h46.07v-6.13H86.84V43.07z M86.84,70.66h46.07v-6.13H86.84V70.66z M191.26,70.66V43.07h-33.82v27.59h-6.13V9.36h6.13v27.59h33.82V9.36h6.12v61.3C197.38,70.66,191.26,70.66,191.26,70.66z M238.88,8.74h-1.6l-27.64,61.92h6.72l6.84-15.33h29.75l6.85,15.33h6.72L238.88,8.74z M225.95,49.2L238.09,22l12.14,27.2H225.95z M330.85,36.94h-26.92v6.13h20.79v11.07c-4.53,6.64-12.14,11-20.79,11c-13.88,0-25.14-11.25-25.14-25.14 c0-13.88,11.25-25.13,25.14-25.13c6.94,0,13.23,2.81,17.78,7.36l4.33-4.34c-5.66-5.66-13.48-9.16-22.11-9.16 c-17.27,0-31.27,14-31.27,31.26c0,17.27,14,31.26,31.27,31.26c7.99,0,15.26-3.02,20.79-7.95v7.34h6.13V36.94z M515.996,17.225 c0.094-4.249-3.274-7.77-7.523-7.864c-4.249-0.094-7.77,3.274-7.864,7.523c-0.003,0.114-0.003,0.227,0,0.341v15.387h-27.755V17.225 c0.094-4.249-3.275-7.769-7.524-7.863c-4.249-0.094-7.769,3.275-7.863,7.524c-0.003,0.113-0.003,0.226,0,0.339v46.16 c-0.094,4.249,3.275,7.769,7.524,7.863s7.769-3.275,7.863-7.524c0.003-0.113,0.003-0.226,0-0.339V47.999h27.755v15.387h15.387 V17.225z" />
    <circle style="fill:#00aaf0;" cx="508.305" cy="63.389" r="7.695" />
</svg>
